<svg xmlns="http://www.w3.org/2000/svg" viewBox="0 0 256 204.8" role="img" aria-labelledby="bootstrapTitle">
  <title id="bootstrapTitle">Bootstrap</title>
  <path
    fill="#7952B3"
    d="M45.9 0C20.6 0 0 20.6 0 45.9v113c0 25.3 20.6 45.9 45.9 45.9h164.2c25.3 0 45.9-20.6 45.9-45.9v-113C256 20.6 235.4 0 210.1 0H45.9Z"
  />
  <path
    fill="#FFF"
    d="M74.5 42.7h68.9c26.1 0 42 14.6 42 35.3 0 15.7-8.9 27.1-23.8 31.2v.4c19.7 2.1 31.5 15.5 31.5 35 0 26.4-20.2 41.6-51.7 41.6H74.5V42.7Zm33.5 58.6h27c11.6 0 18.2-6 18.2-15.8 0-9.7-6.6-15.1-18.2-15.1H108v30.9Zm0 58.2h31.2c14 0 21.7-6 21.7-17.6 0-11.2-7.8-17.2-21.7-17.2H108v34.8Z"
  />
</svg>
